<svg width="153" height="40" viewBox="0 0 153 40" fill="none" xmlns="http://www.w3.org/2000/svg">
<path d="M0.481 20.463C0.481 19.579 0.684667 18.786 1.092 18.084C1.508 17.382 2.067 16.836 2.769 16.446C3.47967 16.0473 4.25533 15.848 5.096 15.848C6.058 15.848 6.91167 16.0863 7.657 16.563C8.411 17.031 8.957 17.6983 9.295 18.565H7.514C7.28 18.0883 6.955 17.733 6.539 17.499C6.123 17.265 5.642 17.148 5.096 17.148C4.498 17.148 3.965 17.2823 3.497 17.551C3.029 17.8197 2.66067 18.2053 2.392 18.708C2.132 19.2107 2.002 19.7957 2.002 20.463C2.002 21.1303 2.132 21.7153 2.392 22.218C2.66067 22.7207 3.029 23.1107 3.497 23.388C3.965 23.6567 4.498 23.791 5.096 23.791C5.642 23.791 6.123 23.674 6.539 23.44C6.955 23.206 7.28 22.8507 7.514 22.374H9.295C8.957 23.2407 8.411 23.908 7.657 24.376C6.91167 24.844 6.058 25.078 5.096 25.078C4.24667 25.078 3.471 24.883 2.769 24.493C2.067 24.0943 1.508 23.544 1.092 22.842C0.684667 22.14 0.481 21.347 0.481 20.463ZM12.5117 15.38V25H11.0297V15.38H12.5117ZM15.2114 16.888C14.9428 16.888 14.7174 16.797 14.5354 16.615C14.3534 16.433 14.2624 16.2077 14.2624 15.939C14.2624 15.6703 14.3534 15.445 14.5354 15.263C14.7174 15.081 14.9428 14.99 15.2114 14.99C15.4714 14.99 15.6924 15.081 15.8744 15.263C16.0564 15.445 16.1474 15.6703 16.1474 15.939C16.1474 16.2077 16.0564 16.433 15.8744 16.615C15.6924 16.797 15.4714 16.888 15.2114 16.888ZM15.9394 17.837V25H14.4574V17.837H15.9394ZM21.4992 17.72C22.0625 17.72 22.5652 17.837 23.0072 18.071C23.4578 18.305 23.8088 18.6517 24.0602 19.111C24.3115 19.5703 24.4372 20.125 24.4372 20.775V25H22.9682V20.996C22.9682 20.3547 22.8078 19.865 22.4872 19.527C22.1665 19.1803 21.7288 19.007 21.1742 19.007C20.6195 19.007 20.1775 19.1803 19.8482 19.527C19.5275 19.865 19.3672 20.3547 19.3672 20.996V25H17.8852V17.837H19.3672V18.656C19.6098 18.3613 19.9175 18.1317 20.2902 17.967C20.6715 17.8023 21.0745 17.72 21.4992 17.72ZM27.0815 16.888C26.8129 16.888 26.5875 16.797 26.4055 16.615C26.2235 16.433 26.1325 16.2077 26.1325 15.939C26.1325 15.6703 26.2235 15.445 26.4055 15.263C26.5875 15.081 26.8129 14.99 27.0815 14.99C27.3415 14.99 27.5625 15.081 27.7445 15.263C27.9265 15.445 28.0175 15.6703 28.0175 15.939C28.0175 16.2077 27.9265 16.433 27.7445 16.615C27.5625 16.797 27.3415 16.888 27.0815 16.888ZM27.8095 17.837V25H26.3275V17.837H27.8095ZM29.2613 21.412C29.2613 20.6753 29.4086 20.0297 29.7033 19.475C30.0066 18.9117 30.4226 18.4783 30.9513 18.175C31.4799 17.8717 32.0866 17.72 32.7713 17.72C33.6379 17.72 34.3529 17.928 34.9163 18.344C35.4883 18.7513 35.8739 19.3363 36.0733 20.099H34.4743C34.3443 19.7437 34.1363 19.4663 33.8503 19.267C33.5643 19.0677 33.2046 18.968 32.7713 18.968C32.1646 18.968 31.6793 19.1847 31.3153 19.618C30.9599 20.0427 30.7823 20.6407 30.7823 21.412C30.7823 22.1833 30.9599 22.7857 31.3153 23.219C31.6793 23.6523 32.1646 23.869 32.7713 23.869C33.6293 23.869 34.1969 23.492 34.4743 22.738H36.0733C35.8653 23.466 35.4753 24.0467 34.9033 24.48C34.3313 24.9047 33.6206 25.117 32.7713 25.117C32.0866 25.117 31.4799 24.9653 30.9513 24.662C30.4226 24.35 30.0066 23.9167 29.7033 23.362C29.4086 22.7987 29.2613 22.1487 29.2613 21.412ZM37.0562 21.386C37.0562 20.6667 37.2035 20.0297 37.4982 19.475C37.8015 18.9203 38.2089 18.4913 38.7202 18.188C39.2402 17.876 39.8122 17.72 40.4362 17.72C40.9995 17.72 41.4892 17.8327 41.9052 18.058C42.3299 18.2747 42.6679 18.5477 42.9192 18.877V17.837H44.4142V25H42.9192V23.934C42.6679 24.272 42.3255 24.5537 41.8922 24.779C41.4589 25.0043 40.9649 25.117 40.4102 25.117C39.7949 25.117 39.2315 24.961 38.7202 24.649C38.2089 24.3283 37.8015 23.8863 37.4982 23.323C37.2035 22.751 37.0562 22.1053 37.0562 21.386ZM42.9192 21.412C42.9192 20.918 42.8152 20.489 42.6072 20.125C42.4079 19.761 42.1435 19.4837 41.8142 19.293C41.4849 19.1023 41.1295 19.007 40.7482 19.007C40.3669 19.007 40.0115 19.1023 39.6822 19.293C39.3529 19.475 39.0842 19.748 38.8762 20.112C38.6769 20.4673 38.5772 20.892 38.5772 21.386C38.5772 21.88 38.6769 22.3133 38.8762 22.686C39.0842 23.0587 39.3529 23.3447 39.6822 23.544C40.0202 23.7347 40.3755 23.83 40.7482 23.83C41.1295 23.83 41.4849 23.7347 41.8142 23.544C42.1435 23.3533 42.4079 23.076 42.6072 22.712C42.8152 22.3393 42.9192 21.906 42.9192 21.412ZM54.6647 15.965V22.478C54.6647 23.284 54.4177 23.921 53.9237 24.389C53.4384 24.857 52.797 25.091 51.9997 25.091C51.2024 25.091 50.5567 24.857 50.0627 24.389C49.5774 23.921 49.3347 23.284 49.3347 22.478H50.8297C50.8384 22.8767 50.938 23.193 51.1287 23.427C51.328 23.661 51.6184 23.778 51.9997 23.778C52.381 23.778 52.6714 23.661 52.8707 23.427C53.07 23.1843 53.1697 22.868 53.1697 22.478V15.965H54.6647ZM63.5626 17.837V25H62.0806V24.155C61.8466 24.4497 61.5389 24.6837 61.1576 24.857C60.7849 25.0217 60.3863 25.104 59.9616 25.104C59.3983 25.104 58.8913 24.987 58.4406 24.753C57.9986 24.519 57.6476 24.1723 57.3876 23.713C57.1363 23.2537 57.0106 22.699 57.0106 22.049V17.837H58.4796V21.828C58.4796 22.4693 58.6399 22.9633 58.9606 23.31C59.2813 23.648 59.7189 23.817 60.2736 23.817C60.8283 23.817 61.2659 23.648 61.5866 23.31C61.9159 22.9633 62.0806 22.4693 62.0806 21.828V17.837H63.5626ZM67 18.877C67.2166 18.513 67.5026 18.2313 67.858 18.032C68.222 17.824 68.651 17.72 69.145 17.72V19.254H68.768C68.1873 19.254 67.7453 19.4013 67.442 19.696C67.1473 19.9907 67 20.502 67 21.23V25H65.518V17.837H67V18.877ZM71.2612 16.888C70.9926 16.888 70.7672 16.797 70.5852 16.615C70.4032 16.433 70.3122 16.2077 70.3122 15.939C70.3122 15.6703 70.4032 15.445 70.5852 15.263C70.7672 15.081 70.9926 14.99 71.2612 14.99C71.5212 14.99 71.7422 15.081 71.9242 15.263C72.1062 15.445 72.1972 15.6703 72.1972 15.939C72.1972 16.2077 72.1062 16.433 71.9242 16.615C71.7422 16.797 71.5212 16.888 71.2612 16.888ZM71.9892 17.837V25H70.5072V17.837H71.9892ZM73.441 21.386C73.441 20.6667 73.5883 20.0297 73.883 19.475C74.1863 18.9203 74.5936 18.4913 75.105 18.188C75.625 17.876 76.2013 17.72 76.834 17.72C77.302 17.72 77.7613 17.824 78.212 18.032C78.6713 18.2313 79.0353 18.5 79.304 18.838V15.38H80.799V25H79.304V23.921C79.0613 24.2677 78.7233 24.5537 78.29 24.779C77.8653 25.0043 77.3756 25.117 76.821 25.117C76.197 25.117 75.625 24.961 75.105 24.649C74.5936 24.3283 74.1863 23.8863 73.883 23.323C73.5883 22.751 73.441 22.1053 73.441 21.386ZM79.304 21.412C79.304 20.918 79.2 20.489 78.992 20.125C78.7926 19.761 78.5283 19.4837 78.199 19.293C77.8696 19.1023 77.5143 19.007 77.133 19.007C76.7516 19.007 76.3963 19.1023 76.067 19.293C75.7376 19.475 75.469 19.748 75.261 20.112C75.0616 20.4673 74.962 20.892 74.962 21.386C74.962 21.88 75.0616 22.3133 75.261 22.686C75.469 23.0587 75.7376 23.3447 76.067 23.544C76.405 23.7347 76.7603 23.83 77.133 23.83C77.5143 23.83 77.8696 23.7347 78.199 23.544C78.5283 23.3533 78.7926 23.076 78.992 22.712C79.2 22.3393 79.304 21.906 79.304 21.412ZM83.4995 16.888C83.2308 16.888 83.0055 16.797 82.8235 16.615C82.6415 16.433 82.5505 16.2077 82.5505 15.939C82.5505 15.6703 82.6415 15.445 82.8235 15.263C83.0055 15.081 83.2308 14.99 83.4995 14.99C83.7595 14.99 83.9805 15.081 84.1625 15.263C84.3445 15.445 84.4355 15.6703 84.4355 15.939C84.4355 16.2077 84.3445 16.433 84.1625 16.615C83.9805 16.797 83.7595 16.888 83.4995 16.888ZM84.2275 17.837V25H82.7455V17.837H84.2275ZM85.6792 21.412C85.6792 20.6753 85.8266 20.0297 86.1212 19.475C86.4246 18.9117 86.8406 18.4783 87.3692 18.175C87.8979 17.8717 88.5046 17.72 89.1892 17.72C90.0559 17.72 90.7709 17.928 91.3342 18.344C91.9062 18.7513 92.2919 19.3363 92.4912 20.099H90.8922C90.7622 19.7437 90.5542 19.4663 90.2682 19.267C89.9822 19.0677 89.6226 18.968 89.1892 18.968C88.5826 18.968 88.0972 19.1847 87.7332 19.618C87.3779 20.0427 87.2002 20.6407 87.2002 21.412C87.2002 22.1833 87.3779 22.7857 87.7332 23.219C88.0972 23.6523 88.5826 23.869 89.1892 23.869C90.0472 23.869 90.6149 23.492 90.8922 22.738H92.4912C92.2832 23.466 91.8932 24.0467 91.3212 24.48C90.7492 24.9047 90.0386 25.117 89.1892 25.117C88.5046 25.117 87.8979 24.9653 87.3692 24.662C86.8406 24.35 86.4246 23.9167 86.1212 23.362C85.8266 22.7987 85.6792 22.1487 85.6792 21.412ZM93.4742 21.386C93.4742 20.6667 93.6215 20.0297 93.9162 19.475C94.2195 18.9203 94.6268 18.4913 95.1382 18.188C95.6582 17.876 96.2302 17.72 96.8542 17.72C97.4175 17.72 97.9072 17.8327 98.3232 18.058C98.7478 18.2747 99.0858 18.5477 99.3372 18.877V17.837H100.832V25H99.3372V23.934C99.0858 24.272 98.7435 24.5537 98.3102 24.779C97.8768 25.0043 97.3828 25.117 96.8282 25.117C96.2128 25.117 95.6495 24.961 95.1382 24.649C94.6268 24.3283 94.2195 23.8863 93.9162 23.323C93.6215 22.751 93.4742 22.1053 93.4742 21.386ZM99.3372 21.412C99.3372 20.918 99.2332 20.489 99.0252 20.125C98.8258 19.761 98.5615 19.4837 98.2322 19.293C97.9028 19.1023 97.5475 19.007 97.1662 19.007C96.7848 19.007 96.4295 19.1023 96.1002 19.293C95.7708 19.475 95.5022 19.748 95.2942 20.112C95.0948 20.4673 94.9952 20.892 94.9952 21.386C94.9952 21.88 95.0948 22.3133 95.2942 22.686C95.5022 23.0587 95.7708 23.3447 96.1002 23.544C96.4382 23.7347 96.7935 23.83 97.1662 23.83C97.5475 23.83 97.9028 23.7347 98.2322 23.544C98.5615 23.3533 98.8258 23.076 99.0252 22.712C99.2332 22.3393 99.3372 21.906 99.3372 21.412ZM115.216 15.965V21.724C115.216 22.4087 115.394 22.9243 115.749 23.271C116.113 23.6177 116.616 23.791 117.257 23.791C117.907 23.791 118.41 23.6177 118.765 23.271C119.129 22.9243 119.311 22.4087 119.311 21.724V15.965H120.793V21.698C120.793 22.4347 120.633 23.0587 120.312 23.57C119.992 24.0813 119.563 24.4627 119.025 24.714C118.488 24.9653 117.894 25.091 117.244 25.091C116.594 25.091 116.001 24.9653 115.463 24.714C114.935 24.4627 114.514 24.0813 114.202 23.57C113.89 23.0587 113.734 22.4347 113.734 21.698V15.965H115.216ZM122.229 20.463C122.229 19.579 122.433 18.786 122.84 18.084C123.256 17.382 123.815 16.836 124.517 16.446C125.228 16.0473 126.003 15.848 126.844 15.848C127.806 15.848 128.66 16.0863 129.405 16.563C130.159 17.031 130.705 17.6983 131.043 18.565H129.262C129.028 18.0883 128.703 17.733 128.287 17.499C127.871 17.265 127.39 17.148 126.844 17.148C126.246 17.148 125.713 17.2823 125.245 17.551C124.777 17.8197 124.409 18.2053 124.14 18.708C123.88 19.2107 123.75 19.7957 123.75 20.463C123.75 21.1303 123.88 21.7153 124.14 22.218C124.409 22.7207 124.777 23.1107 125.245 23.388C125.713 23.6567 126.246 23.791 126.844 23.791C127.39 23.791 127.871 23.674 128.287 23.44C128.703 23.206 129.028 22.8507 129.262 22.374H131.043C130.705 23.2407 130.159 23.908 129.405 24.376C128.66 24.844 127.806 25.078 126.844 25.078C125.995 25.078 125.219 24.883 124.517 24.493C123.815 24.0943 123.256 23.544 122.84 22.842C122.433 22.14 122.229 21.347 122.229 20.463ZM138.225 23.154H134.442L133.792 25H132.245L135.482 15.952H137.198L140.435 25H138.875L138.225 23.154ZM137.809 21.945L136.34 17.746L134.858 21.945H137.809ZM146.678 20.359C147.164 20.4457 147.575 20.7013 147.913 21.126C148.251 21.5507 148.42 22.0317 148.42 22.569C148.42 23.0283 148.299 23.4443 148.056 23.817C147.822 24.181 147.48 24.4713 147.029 24.688C146.579 24.896 146.054 25 145.456 25H141.842V15.965H145.287C145.903 15.965 146.431 16.069 146.873 16.277C147.315 16.485 147.649 16.7667 147.874 17.122C148.1 17.4687 148.212 17.8587 148.212 18.292C148.212 18.812 148.074 19.2453 147.796 19.592C147.519 19.9387 147.146 20.1943 146.678 20.359ZM143.324 19.761H145.157C145.643 19.761 146.02 19.6527 146.288 19.436C146.566 19.2107 146.704 18.89 146.704 18.474C146.704 18.0667 146.566 17.7503 146.288 17.525C146.02 17.291 145.643 17.174 145.157 17.174H143.324V19.761ZM145.326 23.791C145.829 23.791 146.223 23.6697 146.509 23.427C146.795 23.1843 146.938 22.8463 146.938 22.413C146.938 21.971 146.787 21.62 146.483 21.36C146.18 21.1 145.777 20.97 145.274 20.97H143.324V23.791H145.326Z" fill="#202020"/>
<path d="M108.028 26.469H106.546V14.587H108.028V26.469Z" fill="#4990E2"/>
</svg>
